<?xml version="1.0" standalone="no"?>
<!DOCTYPE svg PUBLIC "-//W3C//DTD SVG 20010904//EN"
 "http://www.w3.org/TR/2001/REC-SVG-20010904/DTD/svg10.dtd">
<svg version="1.0" xmlns="http://www.w3.org/2000/svg"
 width="512.000000pt" height="512.000000pt" viewBox="0 0 512.000000 512.000000"
 preserveAspectRatio="xMidYMid meet">
<metadata>
Created by potrace 1.14, written by Peter Selinger 2001-2017
</metadata>
<g transform="translate(0.000000,512.000000) scale(0.100000,-0.100000)"
fill="#000000" stroke="none">
<path d="M2360 5104 c-127 -21 -137 -23 -230 -54 -132 -45 -232 -93 -345 -168
-187 -124 -393 -356 -469 -529 -18 -41 -20 -42 -95 -58 -411 -89 -732 -222
-969 -402 -282 -215 -329 -465 -129 -689 38 -43 197 -174 211 -174 3 0 29 -15
58 -33 152 -97 447 -207 748 -281 145 -35 410 -86 448 -86 12 0 23 -4 26 -8 6
-9 -860 -2034 -888 -2077 -92 -140 70 -281 448 -390 49 -14 102 -28 118 -30
15 -3 56 -12 90 -19 64 -15 115 -24 178 -31 19 -3 49 -7 65 -9 17 -3 53 -8 80
-12 28 -3 59 -8 69 -10 10 -2 58 -6 105 -9 47 -3 95 -8 107 -10 122 -25 936
-25 1144 0 19 2 75 7 125 10 49 4 92 8 95 10 3 2 32 6 64 9 32 4 68 8 80 11
11 2 41 7 66 10 160 19 394 76 545 132 242 89 356 209 301 315 -8 15 -21 40
-30 55 -8 15 -45 98 -81 183 -36 85 -70 164 -75 175 -5 11 -37 85 -70 165 -34
80 -67 159 -75 175 -7 17 -27 64 -45 105 -18 41 -38 89 -46 105 -73 163 -482
1130 -479 1133 2 2 86 19 187 38 381 70 666 156 921 279 219 105 400 256 467
390 32 65 35 77 35 165 0 89 -2 100 -35 164 -63 128 -184 236 -404 362 -221
126 -420 198 -758 274 -91 20 -97 23 -109 53 -21 51 -107 187 -163 257 -95
117 -238 242 -364 319 -128 77 -320 150 -467 176 -113 21 -356 26 -455 9z"/>
</g>
</svg>
